<svg width="11.250000" height="10.297485" viewBox="0 0 11.25 10.2975" fill="none" xmlns="http://www.w3.org/2000/svg" xmlns:xlink="http://www.w3.org/1999/xlink">
	<desc>
			Created with Pixso.
	</desc>
	<defs/>
	<path id="Layer 2" d="M9.67 0.56L8.35 0.56L8.35 0.37C8.35 0.27 8.31 0.18 8.24 0.1C8.17 0.03 8.07 0 7.97 0C7.87 0 7.78 0.03 7.71 0.1C7.64 0.18 7.6 0.27 7.6 0.37L7.6 0.56L3.64 0.56L3.64 0.37C3.64 0.27 3.6 0.18 3.53 0.1C3.46 0.03 3.37 0 3.27 0C3.17 0 3.07 0.03 3 0.1C2.93 0.18 2.89 0.27 2.89 0.37L2.89 0.56L1.57 0.56C1.16 0.56 0.75 0.73 0.46 1.02C0.16 1.32 0 1.72 0 2.14L0 8.71C0 9.13 0.16 9.53 0.46 9.83C0.75 10.12 1.16 10.29 1.57 10.29L9.67 10.29C10.08 10.29 10.49 10.12 10.78 9.83C11.08 9.53 11.24 9.13 11.25 8.71L11.25 2.14C11.24 1.72 11.08 1.32 10.78 1.02C10.49 0.73 10.08 0.56 9.67 0.56ZM1.57 1.31L2.89 1.31L2.89 1.5C2.89 1.59 2.93 1.69 3 1.76C3.07 1.83 3.17 1.87 3.27 1.87C3.37 1.87 3.46 1.83 3.53 1.76C3.6 1.69 3.64 1.59 3.64 1.5L3.64 1.31L7.6 1.31L7.6 1.5C7.6 1.59 7.64 1.69 7.71 1.76C7.78 1.83 7.87 1.87 7.97 1.87C8.07 1.87 8.17 1.83 8.24 1.76C8.31 1.69 8.35 1.59 8.35 1.5L8.35 1.31L9.67 1.31C9.89 1.31 10.1 1.39 10.25 1.55C10.41 1.71 10.5 1.92 10.5 2.14L10.5 3.03L0.75 3.03L0.75 2.14C0.75 1.92 0.83 1.71 0.99 1.55C1.14 1.39 1.35 1.31 1.57 1.31ZM9.67 9.56L1.57 9.56C1.46 9.56 1.35 9.54 1.25 9.49C1.15 9.45 1.06 9.39 0.98 9.31C0.91 9.23 0.84 9.14 0.8 9.04C0.76 8.93 0.74 8.82 0.75 8.71L0.75 3.78L10.5 3.78L10.5 8.71C10.5 8.82 10.48 8.93 10.44 9.04C10.4 9.14 10.33 9.23 10.26 9.31C10.18 9.39 10.09 9.45 9.99 9.49C9.89 9.54 9.78 9.56 9.67 9.56Z" fill="#FFFFFF" fill-opacity="1.000000" fill-rule="nonzero"/>
</svg>
