<svg width="18" height="18" viewBox="0 0 18 18" fill="none" xmlns="http://www.w3.org/2000/svg">
<g clip-path="url(#clip0_11_1568)">
<path d="M9.00284 0.748352C4.45607 0.748352 0.748352 4.45607 0.748352 9.00284C0.748352 13.5496 4.45607 17.2517 9.00284 17.2517C11.1896 17.2487 13.286 16.3786 14.8323 14.8323C16.3786 13.286 17.2487 11.1896 17.2517 9.00284C17.252 8.90396 17.2329 8.80597 17.1953 8.71451C17.1577 8.62304 17.1024 8.5399 17.0326 8.46984C16.9629 8.39979 16.8799 8.3442 16.7886 8.30627C16.6973 8.26835 16.5994 8.24882 16.5005 8.24883C16.4018 8.2492 16.3042 8.26899 16.2132 8.30709C16.1222 8.34518 16.0396 8.40083 15.9701 8.47084C15.9007 8.54086 15.8456 8.62388 15.8082 8.71516C15.7708 8.80644 15.7518 8.90419 15.7521 9.00284C15.754 9.88946 15.5808 10.7677 15.2424 11.5872C14.9041 12.4068 14.4073 13.1514 13.7805 13.7785C13.1537 14.4055 12.4092 14.9027 11.5899 15.2414C10.7705 15.5801 9.89229 15.7536 9.00567 15.7521C7.2149 15.7521 5.49747 15.0407 4.2312 13.7745C2.96493 12.5082 2.25355 10.7908 2.25355 9.00001C2.25355 7.20923 2.96493 5.4918 4.2312 4.22553C5.49747 2.95926 7.2149 2.24788 9.00567 2.24788C9.20343 2.24639 9.39261 2.16698 9.53218 2.02688C9.67175 1.88678 9.75045 1.69729 9.75119 1.49953C9.75119 1.3008 9.67243 1.11016 9.53217 0.969368C9.39191 0.828575 9.20157 0.749102 9.00284 0.748352ZM11.8488 1.31245C11.6738 1.31098 11.5038 1.37092 11.3684 1.48184C11.2329 1.59277 11.1407 1.74765 11.1077 1.91955C11.0746 2.09145 11.1029 2.26949 11.1876 2.42271C11.2722 2.57592 11.4079 2.6946 11.571 2.75812L11.5937 2.76945C11.6855 2.81365 11.7853 2.83871 11.8871 2.84312C11.9889 2.84753 12.0905 2.83119 12.1857 2.79509C12.281 2.759 12.3679 2.7039 12.4412 2.63316C12.5145 2.56241 12.5727 2.47749 12.6121 2.38357C12.6516 2.28965 12.6715 2.18868 12.6707 2.08681C12.67 1.98494 12.6485 1.8843 12.6075 1.791C12.5666 1.6977 12.5072 1.6137 12.4328 1.5441C12.3584 1.4745 12.2706 1.42076 12.1748 1.38615L12.1436 1.36914C12.0502 1.33052 11.9499 1.31124 11.8488 1.31245ZM14.2895 2.93386C14.1409 2.93429 13.9957 2.97878 13.8724 3.06171C13.7491 3.14463 13.6532 3.26226 13.5967 3.39972C13.5403 3.53718 13.5259 3.6883 13.5553 3.83395C13.5848 3.97959 13.6568 4.11323 13.7622 4.21796L13.7792 4.23497C13.8476 4.3093 13.9303 4.36907 14.0224 4.41071C14.1144 4.45235 14.2139 4.47499 14.3149 4.47729C14.4159 4.47959 14.5163 4.46149 14.6101 4.42409C14.704 4.38668 14.7893 4.33073 14.861 4.25959C14.9327 4.18845 14.9893 4.10357 15.0275 4.01004C15.0657 3.9165 15.0846 3.81623 15.0831 3.71522C15.0816 3.61422 15.0597 3.51455 15.0188 3.42218C14.9779 3.32981 14.9188 3.24664 14.845 3.17764L14.8224 3.15497C14.7525 3.08481 14.6694 3.02916 14.578 2.99121C14.4865 2.95327 14.3885 2.93378 14.2895 2.93386ZM9.00284 3.75024C8.90396 3.74987 8.80597 3.76902 8.7145 3.80661C8.62304 3.84419 8.5399 3.89946 8.46984 3.96925C8.39979 4.03904 8.3442 4.12198 8.30627 4.2133C8.26835 4.30462 8.24882 4.40254 8.24882 4.50142V9.00284C8.2495 9.142 8.28881 9.27824 8.36239 9.39637C8.43597 9.51449 8.54091 9.60985 8.66552 9.67182L11.6646 11.1742C11.7531 11.2184 11.8495 11.2446 11.9482 11.2514C12.047 11.2582 12.1461 11.2454 12.2398 11.2138C12.3336 11.1822 12.4202 11.1324 12.4947 11.0672C12.5691 11.002 12.63 10.9228 12.6737 10.834C12.762 10.6555 12.7758 10.4491 12.712 10.2604C12.6482 10.0717 12.5121 9.91607 12.3335 9.82772L9.75119 8.53796V4.50142C9.75119 4.30269 9.67243 4.11205 9.53217 3.97126C9.39191 3.83046 9.20157 3.75099 9.00284 3.75024ZM15.9307 5.36316C15.8063 5.36229 15.6837 5.39233 15.5738 5.45057C15.4639 5.50882 15.3701 5.59344 15.301 5.69686C15.2319 5.80027 15.1895 5.91922 15.1777 6.04305C15.1659 6.16688 15.185 6.2917 15.2334 6.40631C15.2334 6.41481 15.2391 6.42048 15.2419 6.42898C15.2767 6.52383 15.3303 6.61069 15.3994 6.68436C15.4685 6.75802 15.5518 6.81699 15.6443 6.85772C15.7367 6.89845 15.8365 6.92011 15.9375 6.92141C16.0385 6.92271 16.1387 6.90362 16.2322 6.86528C16.3257 6.82693 16.4105 6.77013 16.4815 6.69826C16.5525 6.6264 16.6083 6.54095 16.6455 6.44702C16.6827 6.3531 16.7006 6.25263 16.6981 6.15163C16.6956 6.05063 16.6727 5.95118 16.6309 5.85922C16.6309 5.84788 16.6252 5.83938 16.6195 5.83087C16.5636 5.69368 16.4684 5.57607 16.3459 5.49285C16.2233 5.40963 16.0789 5.3645 15.9307 5.36316Z" fill="white"/>
</g>
<defs>
<clipPath id="clip0_11_1568">
<rect width="18" height="18" fill="white"/>
</clipPath>
</defs>
</svg>
