<svg width="54" height="54" viewBox="0 0 54 54" fill="none" xmlns="http://www.w3.org/2000/svg">
<g clip-path="url(#clip0_7_1309)">
<path fill-rule="evenodd" clip-rule="evenodd" d="M40.5 54H13.5C11.7271 54.0002 9.97152 53.6511 8.33354 52.9728C6.69555 52.2944 5.20724 51.3 3.95361 50.0464C2.69998 48.7928 1.70559 47.3044 1.02722 45.6665C0.348852 44.0285 -0.0001994 42.2729 8.54568e-08 40.5V13.5C-0.0001994 11.7271 0.348852 9.97152 1.02722 8.33354C1.70559 6.69555 2.69998 5.20724 3.95361 3.95361C5.20724 2.69998 6.69555 1.70559 8.33354 1.02722C9.97152 0.348852 11.7271 -0.0001994 13.5 8.54568e-08H40.5C42.2729 -0.0001994 44.0285 0.348852 45.6665 1.02722C47.3044 1.70559 48.7928 2.69998 50.0464 3.95361C51.3 5.20724 52.2944 6.69555 52.9728 8.33354C53.6511 9.97152 54.0002 11.7271 54 13.5V40.5C54.0002 42.2729 53.6511 44.0285 52.9728 45.6665C52.2944 47.3044 51.3 48.7928 50.0464 50.0464C48.7928 51.3 47.3044 52.2944 45.6665 52.9728C44.0285 53.6511 42.2729 54.0002 40.5 54Z" fill="#7387DC"/>
<path fill-rule="evenodd" clip-rule="evenodd" d="M25.3125 15.1875H40.5C42.4468 15.1874 44.3191 14.4396 45.7304 13.0987C47.1418 11.7578 47.9842 9.92609 48.0838 7.98188C48.1835 6.03767 47.5326 4.12945 46.2658 2.65128C44.9989 1.17312 43.2128 0.237922 41.2762 0.0388126C41.0147 0.0244688 40.7616 8.54568e-08 40.5 8.54568e-08H13.5C11.7271 -0.0001994 9.97152 0.348852 8.33354 1.02722C6.69555 1.70559 5.20724 2.69998 3.95361 3.95361C2.69998 5.20724 1.70559 6.69555 1.02722 8.33354C0.348852 9.97152 -0.0001994 11.7271 8.54568e-08 13.5V40.5C8.54568e-08 33.7867 2.66684 27.3484 7.41386 22.6014C12.1609 17.8543 18.5992 15.1875 25.3125 15.1875Z" fill="#8CA0F5"/>
<path fill-rule="evenodd" clip-rule="evenodd" d="M40.5 27C37.83 27 35.2199 27.7918 32.9998 29.2752C30.7797 30.7586 29.0494 32.867 28.0276 35.3338C27.0058 37.8006 26.7385 40.515 27.2594 43.1337C27.7803 45.7525 29.0661 48.1579 30.9541 50.0459C32.8421 51.9339 35.2475 53.2197 37.8663 53.7406C40.485 54.2615 43.1994 53.9942 45.6662 52.9724C48.133 51.9506 50.2414 50.2203 51.7248 48.0002C53.2082 45.7801 54 43.17 54 40.5V13.5C54.0002 15.2729 53.6512 17.0285 52.9728 18.6665C52.2944 20.3044 51.3 21.7928 50.0464 23.0464C48.7928 24.3 47.3045 25.2944 45.6665 25.9728C44.0285 26.6511 42.2729 27.0002 40.5 27Z" fill="#5A6EC3"/>
<path d="M23.4815 26.5469C23.0504 26.5101 22.6182 26.6044 22.2416 26.8174C21.865 27.0304 21.5614 27.3522 21.3707 27.7405C21.18 28.1289 21.111 28.5659 21.1728 28.9941C21.2345 29.4224 21.4241 29.822 21.7168 30.1407C22.0095 30.4594 22.3916 30.6822 22.813 30.7801C23.2345 30.878 23.6757 30.8464 24.0789 30.6893C24.4821 30.5323 24.8284 30.2571 25.0726 29.9C25.3168 29.5428 25.4475 29.1202 25.4475 28.6875C25.4706 28.1429 25.2764 27.6115 24.9078 27.2101C24.5391 26.8087 24.0261 26.5701 23.4815 26.5469Z" fill="white"/>
<path d="M30.5184 26.5469C30.0873 26.5101 29.6551 26.6044 29.2785 26.8174C28.9018 27.0304 28.5983 27.3522 28.4076 27.7405C28.2169 28.1289 28.1479 28.5659 28.2096 28.9941C28.2714 29.4224 28.461 29.822 28.7537 30.1407C29.0464 30.4594 29.4284 30.6822 29.8499 30.7801C30.2714 30.878 30.7126 30.8464 31.1158 30.6893C31.5189 30.5323 31.8653 30.2571 32.1095 29.9C32.3537 29.5428 32.4843 29.1202 32.4843 28.6875C32.5074 28.1429 32.3133 27.6115 31.9446 27.2101C31.576 26.8087 31.0629 26.5701 30.5184 26.5469Z" fill="white"/>
<path d="M43.875 14.3387C43.8764 13.818 43.775 13.302 43.5768 12.8205C43.3786 12.3389 43.0874 11.9012 42.7199 11.5322C42.3524 11.1633 41.9157 10.8704 41.4349 10.6704C40.9541 10.4703 40.4386 10.367 39.9178 10.3663H14.0822C13.5614 10.367 13.0459 10.4703 12.5651 10.6704C12.0843 10.8704 11.6477 11.1633 11.2802 11.5322C10.9126 11.9012 10.6214 12.3389 10.4232 12.8205C10.225 13.302 10.1237 13.818 10.125 14.3387V39.9018C10.1236 40.4226 10.2249 40.9386 10.4231 41.4203C10.6212 41.9019 10.9124 42.3397 11.2799 42.7088C11.6475 43.0778 12.0841 43.3707 12.565 43.5708C13.0458 43.771 13.5614 43.8743 14.0822 43.875H34.7541C34.8848 43.8754 35.0138 43.8454 35.1309 43.7872C35.248 43.7291 35.3498 43.6444 35.4285 43.54C35.5071 43.4355 35.5603 43.3142 35.5838 43.1856C35.6074 43.0571 35.6006 42.9248 35.5641 42.7992C35.2772 41.8112 34.906 40.5 34.906 40.5C34.906 40.5 39.9263 45.2208 42.4491 47.6002C42.5691 47.7137 42.7197 47.7896 42.8824 47.8184C43.045 47.8473 43.2125 47.8278 43.3643 47.7625C43.516 47.6971 43.6452 47.5887 43.736 47.4507C43.8268 47.3127 43.8751 47.1511 43.875 46.9859V14.3387ZM32.6363 35.5405C32.5512 35.5444 32.4664 35.5282 32.3887 35.4934C32.3111 35.4585 32.2427 35.4058 32.1891 35.3396L31.59 34.6031C31.5355 34.5359 31.4976 34.4568 31.4795 34.3723C31.4613 34.2877 31.4635 34.2 31.4857 34.1164C31.5079 34.0328 31.5496 33.9557 31.6073 33.8913C31.665 33.8269 31.7372 33.777 31.8178 33.7458C32.9242 33.358 33.8864 32.6429 34.5769 31.6955C32.3084 33.1254 29.6816 33.8842 27 33.8842C24.3185 33.8842 21.6916 33.1254 19.4231 31.6955C20.1136 32.6429 21.0759 33.358 22.1822 33.7458C22.2629 33.777 22.335 33.8269 22.3927 33.8913C22.4505 33.9557 22.4921 34.0328 22.5143 34.1164C22.5366 34.2 22.5387 34.2877 22.5206 34.3723C22.5024 34.4568 22.4645 34.5359 22.41 34.6031L21.811 35.3396C21.7574 35.4058 21.689 35.4585 21.6113 35.4934C21.5336 35.5282 21.4488 35.5444 21.3638 35.5405C20.2621 35.5319 19.178 35.263 18.2 34.7558C17.222 34.2486 16.3777 33.5175 15.736 32.6219C15.7985 28.7122 16.7477 24.8677 18.5119 21.3781C20.045 20.1875 21.8991 19.4826 23.836 19.354C23.8662 19.3534 23.8962 19.3594 23.9239 19.3717C23.9516 19.3839 23.9763 19.4021 23.9963 19.4248C24.0194 19.4503 24.0356 19.4812 24.0435 19.5147C24.0514 19.5482 24.0507 19.5831 24.0414 19.6163C24.0321 19.6494 24.0146 19.6796 23.9905 19.7041C23.9664 19.7286 23.9364 19.7466 23.9035 19.7564C22.2574 20.2276 20.7244 21.0288 19.3978 22.1113C21.7278 20.8332 24.3425 20.1631 27 20.1631C29.6576 20.1631 32.2722 20.8332 34.6022 22.1113C33.2756 21.0288 31.7426 20.2276 30.0966 19.7564C30.0636 19.7466 30.0337 19.7286 30.0095 19.7041C29.9854 19.6796 29.9679 19.6494 29.9586 19.6163C29.9493 19.5831 29.9486 19.5482 29.9565 19.5147C29.9644 19.4812 29.9807 19.4503 30.0038 19.4248C30.0237 19.4021 30.0484 19.3839 30.0761 19.3717C30.1038 19.3594 30.1338 19.3534 30.1641 19.354C32.1009 19.4826 33.9551 20.1875 35.4881 21.3781C37.2523 24.8677 38.2015 28.7122 38.2641 32.6219C37.6224 33.5175 36.7781 34.2486 35.8 34.7558C34.822 35.263 33.7379 35.5319 32.6363 35.5405Z" fill="white"/>
</g>
<defs>
<clipPath id="clip0_7_1309">
<rect width="54" height="54" fill="white"/>
</clipPath>
</defs>
</svg>
