<svg width="49" height="31" viewBox="0 0 49 31" fill="none" xmlns="http://www.w3.org/2000/svg">
<rect x="1" y="2" width="47" height="28" rx="6" fill="#AEAEAE"/>
<rect x="2" y="1" width="45" height="22" rx="5" fill="white"/>
<path d="M13.758 17V8.36H19.398V9.884H15.39V11.732H18.678V13.256H15.39V15.476H19.398V17H13.758ZM24.1001 17.18C23.4601 17.18 22.8821 17.068 22.3661 16.844C21.8541 16.616 21.4321 16.292 21.1001 15.872C20.7721 15.448 20.5641 14.944 20.4761 14.36L22.1801 14.108C22.3001 14.604 22.5481 14.986 22.9241 15.254C23.3001 15.522 23.7281 15.656 24.2081 15.656C24.4761 15.656 24.7361 15.614 24.9881 15.53C25.2401 15.446 25.4461 15.322 25.6061 15.158C25.7701 14.994 25.8521 14.792 25.8521 14.552C25.8521 14.464 25.8381 14.38 25.8101 14.3C25.7861 14.216 25.7441 14.138 25.6841 14.066C25.6241 13.994 25.5381 13.926 25.4261 13.862C25.3181 13.798 25.1801 13.74 25.0121 13.688L22.7681 13.028C22.6001 12.98 22.4041 12.912 22.1801 12.824C21.9601 12.736 21.7461 12.61 21.5381 12.446C21.3301 12.282 21.1561 12.066 21.0161 11.798C20.8801 11.526 20.8121 11.184 20.8121 10.772C20.8121 10.192 20.9581 9.71 21.2501 9.326C21.5421 8.942 21.9321 8.656 22.4201 8.468C22.9081 8.28 23.4481 8.188 24.0401 8.192C24.6361 8.2 25.1681 8.302 25.6361 8.498C26.1041 8.694 26.4961 8.98 26.8121 9.356C27.1281 9.728 27.3561 10.184 27.4961 10.724L25.7321 11.024C25.6681 10.744 25.5501 10.508 25.3781 10.316C25.2061 10.124 25.0001 9.978 24.7601 9.878C24.5241 9.778 24.2761 9.724 24.0161 9.716C23.7601 9.708 23.5181 9.744 23.2901 9.824C23.0661 9.9 22.8821 10.012 22.7381 10.16C22.5981 10.308 22.5281 10.484 22.5281 10.688C22.5281 10.876 22.5861 11.03 22.7021 11.15C22.8181 11.266 22.9641 11.36 23.1401 11.432C23.3161 11.504 23.4961 11.564 23.6801 11.612L25.1801 12.02C25.4041 12.08 25.6521 12.16 25.9241 12.26C26.1961 12.356 26.4561 12.492 26.7041 12.668C26.9561 12.84 27.1621 13.068 27.3221 13.352C27.4861 13.636 27.5681 13.996 27.5681 14.432C27.5681 14.896 27.4701 15.302 27.2741 15.65C27.0821 15.994 26.8221 16.28 26.4941 16.508C26.1661 16.732 25.7941 16.9 25.3781 17.012C24.9661 17.124 24.5401 17.18 24.1001 17.18ZM32.5949 17.18C31.7309 17.18 30.9849 16.992 30.3569 16.616C29.7329 16.24 29.2509 15.714 28.9109 15.038C28.5749 14.362 28.4069 13.576 28.4069 12.68C28.4069 11.784 28.5749 10.998 28.9109 10.322C29.2509 9.646 29.7329 9.12 30.3569 8.744C30.9849 8.368 31.7309 8.18 32.5949 8.18C33.5869 8.18 34.4189 8.426 35.0909 8.918C35.7669 9.41 36.2429 10.076 36.5189 10.916L34.8749 11.372C34.7149 10.848 34.4449 10.442 34.0649 10.154C33.6849 9.862 33.1949 9.716 32.5949 9.716C32.0469 9.716 31.5889 9.838 31.2209 10.082C30.8569 10.326 30.5829 10.67 30.3989 11.114C30.2149 11.558 30.1229 12.08 30.1229 12.68C30.1229 13.28 30.2149 13.802 30.3989 14.246C30.5829 14.69 30.8569 15.034 31.2209 15.278C31.5889 15.522 32.0469 15.644 32.5949 15.644C33.1949 15.644 33.6849 15.498 34.0649 15.206C34.4449 14.914 34.7149 14.508 34.8749 13.988L36.5189 14.444C36.2429 15.284 35.7669 15.95 35.0909 16.442C34.4189 16.934 33.5869 17.18 32.5949 17.18Z" fill="black"/>
</svg>
