<svg width="54" height="54" viewBox="0 0 54 54" fill="none" xmlns="http://www.w3.org/2000/svg">
<g clip-path="url(#clip0_7_1325)">
<path fill-rule="evenodd" clip-rule="evenodd" d="M40.5 54H13.5C9.91963 53.9998 6.48594 52.5775 3.95423 50.0458C1.42252 47.5141 0.000156631 44.0804 0 40.5L0 13.5C0.000156631 9.91963 1.42252 6.48594 3.95423 3.95423C6.48594 1.42252 9.91963 0.000156631 13.5 0L40.5 0C44.0804 0 47.5142 1.42232 50.0459 3.95406C52.5777 6.4858 54 9.91958 54 13.5V40.5C54 44.0804 52.5777 47.5142 50.0459 50.0459C47.5142 52.5777 44.0804 54 40.5 54Z" fill="#199BDF"/>
<path fill-rule="evenodd" clip-rule="evenodd" d="M25.3125 15.1875H40.5C42.4468 15.1874 44.3191 14.4396 45.7304 13.0987C47.1418 11.7578 47.9842 9.92609 48.0838 7.98188C48.1835 6.03767 47.5326 4.12945 46.2658 2.65128C44.9989 1.17312 43.2128 0.237922 41.2762 0.0388125C41.0181 0.0244687 40.7624 0 40.5 0H13.5C9.91963 0.000156631 6.48594 1.42252 3.95423 3.95423C1.42252 6.48594 0.000156631 9.91963 0 13.5L0 40.5C0.000156637 33.7868 2.66705 27.3485 7.41403 22.6015C12.161 17.8546 18.5993 15.1877 25.3125 15.1875Z" fill="#32B4FF"/>
<path fill-rule="evenodd" clip-rule="evenodd" d="M40.5 27C37.83 27 35.2199 27.7918 32.9998 29.2752C30.7797 30.7586 29.0494 32.867 28.0276 35.3338C27.0058 37.8006 26.7385 40.515 27.2594 43.1337C27.7803 45.7525 29.0661 48.1579 30.9541 50.0459C32.8421 51.934 35.2475 53.2197 37.8663 53.7406C40.485 54.2615 43.1994 53.9942 45.6662 52.9724C48.133 51.9506 50.2414 50.2203 51.7248 48.0002C53.2082 45.7801 54 43.17 54 40.5V13.5C54 17.0804 52.5777 20.5142 50.0459 23.0459C47.5142 25.5777 44.0804 27 40.5 27Z" fill="#0082BE"/>
<path fill-rule="evenodd" clip-rule="evenodd" d="M38.0363 14.3707C38.4511 14.1995 38.9039 14.1416 39.3484 14.203C39.7929 14.2643 40.2132 14.4428 40.566 14.72C40.9189 14.9972 41.1917 15.3633 41.3566 15.7806C41.5214 16.198 41.5723 16.6517 41.5041 17.0952C40.5208 23.49 38.718 35.208 37.761 41.4281C37.6948 41.8585 37.5187 42.2646 37.2496 42.607C36.9806 42.9495 36.6278 43.2167 36.2252 43.3829C35.8227 43.5491 35.3841 43.6086 34.9519 43.5557C34.5196 43.5029 34.1083 43.3393 33.7577 43.081C30.3724 40.5869 25.2969 36.8474 22.72 34.9481C22.5212 34.8016 22.3569 34.6131 22.2388 34.3962C22.1208 34.1792 22.0518 33.9389 22.0368 33.6923C22.0217 33.4458 22.061 33.1989 22.1518 32.9692C22.2427 32.7395 22.3828 32.5325 22.5624 32.3629C24.9236 30.1328 29.6265 25.6913 32.8622 22.6353C32.9384 22.5628 32.9849 22.4645 32.9924 22.3597C32.9999 22.2548 32.968 22.1509 32.9029 22.0683C32.8378 21.9857 32.7442 21.9304 32.6405 21.9133C32.5368 21.8961 32.4304 21.9183 32.3421 21.9755C28.1933 24.6814 21.8394 28.825 18.7253 30.8559C18.1417 31.2366 17.4858 31.4926 16.7986 31.608C16.1115 31.7234 15.4079 31.6958 14.732 31.5267C13.0172 31.0981 10.5439 30.4796 8.34277 29.9295C7.99816 29.8434 7.68951 29.6507 7.46078 29.379C7.23205 29.1072 7.0949 28.7702 7.06887 28.416C7.04284 28.0617 7.12926 27.7083 7.31581 27.406C7.50237 27.1038 7.77955 26.8681 8.10787 26.7325C15.7701 23.5676 30.7651 17.3745 38.0363 14.3707Z" fill="white"/>
</g>
<defs>
<clipPath id="clip0_7_1325">
<rect width="54" height="54" fill="white"/>
</clipPath>
</defs>
</svg>
