<svg width="54" height="54" viewBox="0 0 54 54" fill="none" xmlns="http://www.w3.org/2000/svg">
<g clip-path="url(#clip0_7_1293)">
<path fill-rule="evenodd" clip-rule="evenodd" d="M40.5 54H13.5C9.91963 53.9998 6.48594 52.5775 3.95423 50.0458C1.42252 47.5141 0.000156631 44.0804 0 40.5L0 13.5C0.000156631 9.91963 1.42252 6.48594 3.95423 3.95423C6.48594 1.42252 9.91963 0.000156631 13.5 0L40.5 0C44.0804 0 47.5142 1.42232 50.0459 3.95406C52.5777 6.4858 54 9.91958 54 13.5V40.5C54 44.0804 52.5777 47.5142 50.0459 50.0459C47.5142 52.5777 44.0804 54 40.5 54Z" fill="#FF0000"/>
<path fill-rule="evenodd" clip-rule="evenodd" d="M25.3125 15.1875H40.5C42.4468 15.1874 44.3191 14.4396 45.7304 13.0987C47.1418 11.7578 47.9842 9.92609 48.0838 7.98188C48.1835 6.03767 47.5326 4.12945 46.2658 2.65128C44.9989 1.17312 43.2128 0.237922 41.2762 0.0388125C41.0181 0.0244687 40.7624 0 40.5 0H13.5C9.91963 0.000156631 6.48594 1.42252 3.95423 3.95423C1.42252 6.48594 0.000156631 9.91963 0 13.5L0 40.5C0.000156637 33.7868 2.66705 27.3485 7.41403 22.6015C12.161 17.8546 18.5993 15.1877 25.3125 15.1875Z" fill="#FF5A51"/>
<path fill-rule="evenodd" clip-rule="evenodd" d="M40.5 27C37.83 27 35.2199 27.7918 32.9998 29.2752C30.7797 30.7586 29.0494 32.867 28.0276 35.3338C27.0058 37.8006 26.7385 40.515 27.2594 43.1337C27.7803 45.7525 29.0661 48.1579 30.9541 50.0459C32.8421 51.934 35.2475 53.2197 37.8663 53.7406C40.485 54.2615 43.1994 53.9942 45.6662 52.9724C48.133 51.9506 50.2414 50.2203 51.7248 48.0002C53.2082 45.7801 54 43.17 54 40.5V13.5C54 17.0804 52.5777 20.5142 50.0459 23.0459C47.5142 25.5777 44.0804 27 40.5 27Z" fill="#D5002C"/>
<path fill-rule="evenodd" clip-rule="evenodd" d="M21.1343 15.0829C20.8786 14.9254 20.5856 14.839 20.2854 14.8327C19.9852 14.8263 19.6888 14.9001 19.4266 15.0466C19.1645 15.193 18.9463 15.4068 18.7944 15.6657C18.6424 15.9247 18.5624 16.2196 18.5625 16.5198V37.4802C18.5624 37.7805 18.6424 38.0753 18.7944 38.3343C18.9463 38.5933 19.1645 38.807 19.4266 38.9535C19.6888 39.0999 19.9852 39.1738 20.2854 39.1674C20.5856 39.161 20.8786 39.0746 21.1343 38.9172C25.4365 36.2703 34.0259 30.9842 38.1645 28.4369C38.41 28.286 38.6127 28.0747 38.7533 27.8231C38.8939 27.5716 38.9678 27.2882 38.9678 27C38.9678 26.7118 38.8939 26.4285 38.7533 26.1769C38.6127 25.9254 38.41 25.7141 38.1645 25.5631C34.0259 23.0158 25.4365 17.7297 21.1343 15.0829Z" fill="white"/>
</g>
<defs>
<clipPath id="clip0_7_1293">
<rect width="54" height="54" fill="white"/>
</clipPath>
</defs>
</svg>
