<svg width="16.504150" height="16.503693" viewBox="0 0 16.5042 16.5037" fill="none" xmlns="http://www.w3.org/2000/svg" xmlns:xlink="http://www.w3.org/1999/xlink">
	<desc>
			Created with Pixso.
	</desc>
	<defs/>
	<path id="Vector" d="M16.14 7.29L14.84 5.76C14.74 5.64 14.68 5.5 14.67 5.35L14.51 3.34C14.48 2.99 14.33 2.66 14.08 2.41C13.83 2.16 13.5 2.01 13.15 1.99L11.15 1.83C11 1.81 10.85 1.75 10.74 1.65L9.2 0.35C8.94 0.12 8.6 0 8.25 0C7.9 0 7.56 0.12 7.29 0.35L5.76 1.65C5.64 1.75 5.5 1.81 5.35 1.83L3.34 1.99C2.99 2.01 2.66 2.16 2.41 2.41C2.16 2.66 2.01 2.99 1.99 3.34L1.83 5.34C1.81 5.5 1.75 5.64 1.65 5.76L0.35 7.29C0.12 7.56 0 7.9 0 8.25C0 8.6 0.12 8.94 0.35 9.2L1.65 10.74C1.75 10.85 1.81 11 1.83 11.15L1.99 13.15C2.01 13.5 2.16 13.83 2.41 14.08C2.66 14.33 2.99 14.48 3.34 14.51L5.35 14.67C5.5 14.68 5.64 14.74 5.76 14.84L7.29 16.14C7.56 16.37 7.9 16.5 8.25 16.5C8.6 16.5 8.94 16.37 9.2 16.14L10.74 14.84C10.85 14.74 11 14.68 11.15 14.67L13.15 14.51C13.5 14.48 13.83 14.33 14.08 14.08C14.33 13.83 14.48 13.5 14.51 13.15L14.67 11.15C14.68 11 14.74 10.85 14.84 10.74L16.14 9.2C16.37 8.94 16.5 8.6 16.5 8.25C16.5 7.9 16.37 7.56 16.14 7.29ZM5.06 7.12L4.12 7.12L4.12 7.87L4.87 7.87C4.97 7.87 5.07 7.91 5.13 7.98C5.2 8.05 5.24 8.15 5.24 8.25C5.24 8.35 5.2 8.44 5.13 8.51C5.07 8.58 4.97 8.62 4.87 8.62L4.12 8.62L4.12 9.75C4.12 9.8 4.11 9.85 4.09 9.89C4.08 9.94 4.05 9.98 4.01 10.01C3.98 10.05 3.94 10.08 3.89 10.1C3.85 10.12 3.8 10.13 3.75 10.13C3.7 10.13 3.65 10.12 3.6 10.1C3.56 10.08 3.52 10.05 3.48 10.01C3.45 9.98 3.42 9.94 3.4 9.89C3.38 9.85 3.37 9.8 3.37 9.75L3.37 6.75C3.37 6.65 3.41 6.55 3.48 6.48C3.55 6.41 3.65 6.37 3.75 6.37L5.06 6.37C5.11 6.37 5.16 6.38 5.2 6.4C5.25 6.42 5.29 6.45 5.33 6.48C5.36 6.52 5.39 6.56 5.41 6.6C5.43 6.65 5.44 6.7 5.44 6.75C5.44 6.8 5.43 6.85 5.41 6.89C5.39 6.94 5.36 6.98 5.33 7.01C5.29 7.05 5.25 7.08 5.2 7.09C5.16 7.11 5.11 7.12 5.06 7.12ZM7.36 8.6L8.15 9.5C8.22 9.57 8.25 9.67 8.24 9.77C8.24 9.87 8.19 9.96 8.12 10.03C8.04 10.09 7.95 10.13 7.85 10.12C7.75 10.11 7.66 10.07 7.59 9.99L6.56 8.82L6.56 9.75C6.56 9.8 6.55 9.85 6.53 9.89C6.51 9.94 6.49 9.98 6.45 10.01C6.42 10.05 6.37 10.08 6.33 10.1C6.28 10.12 6.23 10.13 6.18 10.13C6.13 10.13 6.09 10.12 6.04 10.1C5.99 10.08 5.95 10.05 5.92 10.01C5.88 9.98 5.86 9.94 5.84 9.89C5.82 9.85 5.81 9.8 5.81 9.75L5.81 6.75C5.81 6.65 5.85 6.55 5.92 6.48C5.99 6.41 6.09 6.37 6.18 6.37L7.12 6.37C7.4 6.37 7.67 6.47 7.87 6.66C8.08 6.84 8.21 7.1 8.24 7.38C8.27 7.65 8.2 7.93 8.04 8.15C7.87 8.38 7.63 8.54 7.36 8.6L7.36 8.6ZM10.12 7.87C10.22 7.87 10.32 7.91 10.38 7.98C10.45 8.05 10.49 8.15 10.49 8.25C10.49 8.35 10.45 8.44 10.38 8.51C10.32 8.58 10.22 8.62 10.12 8.62L9.37 8.62L9.37 9.37L10.31 9.37C10.41 9.37 10.5 9.41 10.57 9.48C10.64 9.55 10.68 9.65 10.68 9.75C10.68 9.85 10.64 9.94 10.57 10.01C10.5 10.08 10.41 10.12 10.31 10.12L9 10.12C8.9 10.12 8.8 10.08 8.73 10.01C8.66 9.94 8.62 9.85 8.62 9.75L8.62 6.75C8.62 6.65 8.66 6.55 8.73 6.48C8.8 6.41 8.9 6.37 9 6.37L10.31 6.37C10.41 6.37 10.5 6.41 10.57 6.48C10.64 6.55 10.68 6.65 10.68 6.75C10.68 6.85 10.64 6.94 10.57 7.01C10.5 7.08 10.41 7.12 10.31 7.12L9.37 7.12L9.37 7.87L10.12 7.87ZM12.56 7.87C12.61 7.87 12.66 7.88 12.7 7.9C12.75 7.92 12.79 7.95 12.83 7.98C12.86 8.02 12.89 8.06 12.91 8.1C12.93 8.15 12.94 8.2 12.94 8.25C12.94 8.3 12.93 8.35 12.91 8.39C12.89 8.44 12.86 8.48 12.83 8.51C12.79 8.55 12.75 8.58 12.7 8.59C12.66 8.61 12.61 8.62 12.56 8.62L11.81 8.62L11.81 9.37L12.75 9.37C12.85 9.37 12.94 9.41 13.01 9.48C13.08 9.55 13.12 9.65 13.12 9.75C13.12 9.85 13.08 9.94 13.01 10.01C12.94 10.08 12.85 10.12 12.75 10.12L11.43 10.12C11.34 10.12 11.24 10.08 11.17 10.01C11.1 9.94 11.06 9.85 11.06 9.75L11.06 6.75C11.06 6.65 11.1 6.55 11.17 6.48C11.24 6.41 11.34 6.37 11.43 6.37L12.75 6.37C12.85 6.37 12.94 6.41 13.01 6.48C13.08 6.55 13.12 6.65 13.12 6.75C13.12 6.85 13.08 6.94 13.01 7.01C12.94 7.08 12.85 7.12 12.75 7.12L11.81 7.12L11.81 7.87L12.56 7.87Z" fill="#1d63e6" fill-opacity="1.000000" fill-rule="nonzero"/>
</svg>
